<svg viewBox="0 0 32 32" xmlns="http://www.w3.org/2000/svg" aria-hidden="true" role="presentation" focusable="false" style="display: block; height: 24px; width: 24px; fill: currentcolor;"><path d="M10 2a3 3 0 0 1 2.995 2.824L13 5v11h14a1 1 0 0 1 .993.883L28 17a8 8 0 0 1-7.75 7.996L20 25h-4.523l1.451 3.629a1 1 0 0 1-.701 1.346l-.111.019L16 30H4a1 1 0 0 1-.993-.883L3 29V5a3 3 0 0 1 2.824-2.995L6 2h4zm15.915 16H5v10h9.523l-1.451-3.629a1 1 0 0 1 .701-1.346l.111-.019L14 23h6a6.002 6.002 0 0 0 5.851-4.667l.048-.23.016-.103zM10 4H6a1 1 0 0 0-.993.883L5 5v11h6V5a1 1 0 0 0-.77-.974l-.113-.02L10 4zm11 9a1 1 0 1 1 0 2 1 1 0 0 1 0-2zm0-3a1 1 0 1 1 0 2 1 1 0 0 1 0-2zm4 0a1 1 0 1 1 0 2 1 1 0 0 1 0-2zm-8 0a1 1 0 1 1 0 2 1 1 0 0 1 0-2zm6-2a1 1 0 1 1 0 2 1 1 0 0 1 0-2zm-4 0a1 1 0 1 1 0 2 1 1 0 0 1 0-2zM8 6a1 1 0 1 1 0 2 1 1 0 0 1 0-2z"/></svg>