<svg viewBox="0 0 32 32" xmlns="http://www.w3.org/2000/svg" aria-hidden="true" role="presentation" focusable="false" style="display: block; height: 24px; width: 24px; fill: currentcolor;"><path d="M11 6v2H9.618l1.999 3.999h10.238l-1.542-4L17 8V6h4a1 1 0 0 1 .882.529l.051.111 3.617 9.38a5 5 0 1 1-1.922.577l-.524-1.36-7.445 6.516a1 1 0 0 1-.539.24L15 22h-4.1A5.002 5.002 0 0 1 1 21a5 5 0 0 1 6.296-4.83l1.81-3.617a1 1 0 0 1 .355-.395L7.38 8H5V6zM6 18a3 3 0 1 0 0 6 3 3 0 0 0 0-6zm20 0a3 3 0 1 0 0 6 3 3 0 0 0 0-6zm-15.5-3.764l-1.414 2.83a5 5 0 0 1 1.814 2.933h2.481zm10.982-.237h-8.865l2.698 5.395z"/></svg>