<svg viewBox="0 0 32 32" xmlns="http://www.w3.org/2000/svg" aria-hidden="true" role="presentation" focusable="false" style="display: block; height: 24px; width: 24px; fill: currentcolor;"><path d="M20.332 3.082c1.495 2.243.961 5.546-1.387 9.907l-.112.188.172.182c.112.128.216.263.311.404l.227.38.14.017c.7.057 1.775-.115 2.868-.48.884-.294 1.78-.777 2.68-1.448l.66-.525a3 3 0 0 1 4.773 1.33l.115.442c.591 3.346.022 5.73-1.857 6.982-2.243 1.496-5.546.962-9.907-1.387a3.004 3.004 0 0 1-.27-.164l-.07.065c-.122.108-.249.21-.382.303l-.282.187-.01.542c-.016.696.156 1.68.489 2.678.294.884.778 1.78 1.448 2.68l.26.337.265.323a3 3 0 0 1-.36 4.228C19 31 17.947 31 17 31l-.535-.005-1.394-.104c-1.242-.177-2.564-.637-3.362-1.835-1.495-2.243-.961-5.546 1.387-9.907.046-.086.096-.169.15-.248a4.115 4.115 0 0 1-.37-.404.82.82 0 0 0-.172-.23.498.498 0 0 0-.217-.108c-.688-.103-1.85.065-3.035.46-.884.295-1.78.778-2.68 1.449l-.66.525a3 3 0 0 1-4.773-1.33l-.116-.443c-.59-3.345-.02-5.73 1.858-6.982 2.243-1.495 5.546-.96 9.907 1.387l.084.05c.313-.297.556-.503.73-.618l.203-.125.025-.211c.057-.7-.114-1.775-.479-2.868-.294-.884-.778-1.78-1.448-2.68l-.525-.661a3 3 0 0 1 1.33-4.772l.442-.116c3.346-.59 5.73-.021 6.982 1.858zm-5.315 16.796l-.16.219c-2.033 3.776-2.498 6.452-1.484 7.85C14.5 29.5 18 29.5 18.813 28.723c.377-.36.466-.892.189-1.317l-.359-.448c-.955-1.199-1.641-2.413-2.05-3.642-.354-1.06-.562-2.12-.59-3.023L16 20l-.137-.002a4.01 4.01 0 0 1-.638-.073l-.208-.047zm-10.93-6.36c-1.553 1.127-1.553 4.627-.777 5.44.359.377.891.466 1.316.189l.448-.359c1.2-.956 2.413-1.641 3.642-2.05 1.166-.39 2.332-.602 3.288-.592L12 16c0-.141.007-.28.022-.418l.075-.462-.16-.118c-3.776-2.033-6.452-2.498-7.85-1.484zm23.242-.356l-.448.359c-1.2.956-2.413 1.641-3.642 2.05-1.148.383-2.296.596-3.243.592-.01.258-.044.51-.101.752l-.068.251.191.141c3.776 2.033 6.452 2.498 7.85 1.484 1.554-1.127 1.554-4.627.777-5.44-.359-.377-.891-.466-1.316-.189zM16 14a2 2 0 1 0 0 4 2 2 0 0 0 0-4zM13.205 3.388c-.376.36-.465.892-.188 1.317l.36.447c.955 1.2 1.64 2.414 2.05 3.643.377 1.132.589 2.265.591 3.204l.542.04.295.053.212.052.095-.129c2.033-3.776 2.498-6.452 1.484-7.85-1.127-1.553-4.627-1.553-5.44-.777z"/></svg>