<svg viewBox="0 0 32 32" xmlns="http://www.w3.org/2000/svg" aria-hidden="true" role="presentation" focusable="false" style="display: block; height: 24px; width: 24px; fill: currentcolor;"><path d="M23 2a6 6 0 0 1 5.996 5.775L29 8v3a5.003 5.003 0 0 1-2.703 4.443l-.206.1-.091.039V28a2 2 0 0 1-1.697 1.977l-.154.018L24 30h-2a2 2 0 0 1-1.995-1.85L20 28V15.582l-.09-.038a5.004 5.004 0 0 1-2.889-4.08l-.016-.236L17 11V8a6 6 0 0 1 6-6zm-8 9c0 2.205-.897 3.758-2.623 4.572l-.21.094-.167.065V28a2 2 0 0 1-1.697 1.977l-.154.018L10 30H8a2 2 0 0 1-1.995-1.85L6 28V15.731l-.166-.065c-1.718-.723-2.676-2.128-2.816-4.139l-.014-.266L3 11V2h2v5h3V2h2v5h3V2h2v9zm8-7a4 4 0 0 0-3.995 3.8L19 8v3c0 1.317.856 2.464 2.08 2.857l.17.049.75.193V28h2V14.099l.751-.194a3.002 3.002 0 0 0 2.244-2.727L27 11V8a4 4 0 0 0-4-4zM13 9H5v2c0 1.596.57 2.483 1.87 2.921l.182.057.19.052.758.19V28h2V14.22l.757-.19c1.499-.375 2.185-1.215 2.24-2.817L13 11V9z"/></svg>