<svg viewBox="0 0 32 32" xmlns="http://www.w3.org/2000/svg" aria-hidden="true" role="presentation" focusable="false" style="display: block; height: 24px; width: 24px; fill: currentcolor;"><path d="M2 30v-2h9v-6H7.5a5.5 5.5 0 0 1-5.482-5.054l-.014-.225L2 16.5v-4.997a3.503 3.503 0 0 1 7-.197l.006.192L9.001 15H11V5A5 5 0 0 1 15.563.019l.22-.014L16 0a5 5 0 0 1 4.995 4.783L21 5v5h1.995l-.012-2.491a3.51 3.51 0 0 1 3.126-3.488l.19-.016L26.49 4a3.509 3.509 0 0 1 3.504 3.316L30 7.51v4.366a5.125 5.125 0 0 1-4.908 5.12l-.217.005H21v11h9v2H2zM16 2a3 3 0 0 0-2.995 2.824L13 5v11a1 1 0 0 1-.883.993L12 17H8a1 1 0 0 1-.993-.885L7 16l.006-4.5a1.503 1.503 0 0 0-3-.133L4 11.503V16.5a3.5 3.5 0 0 0 3.308 3.495L7.5 20H12a1 1 0 0 1 .993.883L13 21v7h6V16a1 1 0 0 1 .77-.974l.113-.02L20 15h4.875a3.125 3.125 0 0 0 3.12-2.948l.005-.177V7.509a1.509 1.509 0 0 0-3.011-.142l-.007.137.018 3.491a1 1 0 0 1-.89 1L24 12h-4a1 1 0 0 1-.993-.883L19 11V5a3 3 0 0 0-3-3z"/></svg>