<svg viewBox="0 0 32 32" xmlns="http://www.w3.org/2000/svg" aria-hidden="true" role="presentation" focusable="false" style="display: block; height: 24px; width: 24px; fill: currentcolor;"><path d="M3 30H1V2h2v12h26V2h2v28h-2l-.001-4.208-.52.075A16.99 16.99 0 0 1 26.35 26c-1.808 0-3.547-.285-5.173-.81A16.812 16.812 0 0 1 16 26c-5.298 0-10.012-2.447-13-6.244zm8.154-14H3l-.001.009.143.285C5.489 20.859 10.362 24 16 24c.722 0 1.432-.051 2.126-.15-3.139-1.777-5.613-4.539-6.972-7.85zM29 19.756a16.264 16.264 0 0 1-4.774 4.093A14.918 14.918 0 0 0 29 23.765zM13.345 16c1.561 3.227 4.371 5.778 7.83 7.071 3.456-1.292 6.262-3.84 7.825-7.06V16z"/></svg>