<svg viewBox="0 0 32 32" xmlns="http://www.w3.org/2000/svg" aria-hidden="true" role="presentation" focusable="false" style="display: block; height: 24px; width: 24px; fill: currentcolor;"><path d="M1 8a7 7 0 0 1 6.76-6.996L8 1h2a7.003 7.003 0 0 1 6.983 6.517l.013.24.01.42a3 3 0 0 0 2.818 2.818L20 11h3a8 8 0 0 1 7.996 7.75L31 19v8a1 1 0 0 1-.883.993L30 28h-1v3h-2v-3H5v3H3v-3H2a1 1 0 0 1-.993-.883L1 27V8zm2 18h26v-6h-2v4h-2v-4h-2v4h-2v-4h-2v4h-2v-4h-2v4h-2v-4h-2v4H9v-4H7v4H5v-4H3v6zm7-23H8a5 5 0 0 0-4.995 4.783L3 8v10h25.915l-.016-.102a6.003 6.003 0 0 0-5.425-4.88l-.25-.014L23 13h-3c-2.689 0-4.882-2.122-4.995-4.766l-.008-.422A5 5 0 0 0 10 3z"/></svg>