<svg viewBox="0 0 32 32" xmlns="http://www.w3.org/2000/svg" aria-hidden="true" role="presentation" focusable="false" style="display: block; height: 24px; width: 24px; fill: currentcolor;"><path d="M27 23a4 4 0 1 1 0 8 4 4 0 0 1 0-8zm0 2a2 2 0 1 0 0 4 2 2 0 0 0 0-4zM18 1c6.075 0 11 4.925 11 11s-4.925 11-11 11a9.08 9.08 0 0 1-1.51-.122l-.628-.122a7 7 0 0 0-5.945 1.75l-.206.197-4.004 4.004a1 1 0 0 1-1.32.083l-.094-.083-3-3a1 1 0 0 1-.083-1.32l.083-.094 3.937-3.937a7 7 0 0 0 1.985-5.903l-.095-.603A13.21 13.21 0 0 1 7 12C7 5.925 11.925 1 18 1zm-1.59 19.825l-7.319-7.319.099.626a9 9 0 0 1-2.335 7.42l-.21.218-3.231 3.229L5 26.585l3.297-3.296a9 9 0 0 1 7.654-2.543l.3.048.159.031zM18 3a9.002 9.002 0 0 0-8.904 7.682l10.223 10.222A9 9 0 0 0 18 3z"/></svg>