<svg viewBox="0 0 32 32" xmlns="http://www.w3.org/2000/svg" aria-hidden="true" role="presentation" focusable="false" style="display: block; height: 24px; width: 24px; fill: currentcolor;"><path d="M28 5a3 3 0 0 1 2.995 2.824L31 8v16a3 3 0 0 1-2.824 2.995L28 27h-4.28l1.229 3.684-1.898.632L21.612 27H4a3 3 0 0 1-2.995-2.824L1 24V8a3 3 0 0 1 2.824-2.995L4 5h24zm0 18a1 1 0 0 0-.117 1.993L28 25l.117-.007A1 1 0 0 0 28 23zM4 23a1 1 0 1 0 0 2 1 1 0 0 0 0-2zM25.17 7L19 6.999V8l-.005.176a3 3 0 0 1-5.99 0L13 8V6.999L6.83 7A3 3 0 0 1 3 10.83v10.34A3 3 0 0 1 6.83 25H13v-1a3 3 0 0 1 5.995-.176L19 24v1h1.946l-3.212-9.636 1.897-.633L23.054 25h2.117a2.987 2.987 0 0 1-.166-.824L25 24a3 3 0 0 1 4-2.829V10.829A3 3 0 0 1 25.17 7zM16 23a1 1 0 0 0-.993.883L15 24v1h2v-1a1 1 0 0 0-1-1zm2-11a1 1 0 1 1 0 2 1 1 0 0 1 0-2zm10-5a1 1 0 1 0 0 2 1 1 0 0 0 0-2zM4 7a1 1 0 1 0 0 2 1 1 0 0 0 0-2zm13-.001h-2V8l.007.117a1 1 0 0 0 1.986 0L17 8V6.999z"/></svg>