<svg viewBox="0 0 32 32" xmlns="http://www.w3.org/2000/svg" aria-hidden="true" role="presentation" focusable="false" style="display: block; height: 24px; width: 24px; fill: currentcolor;"><path d="M29 3a1 1 0 0 1 .96.718l.026.118 1 6a1 1 0 0 1-.872 1.158L30 11h-2v17h2v2h-6v-2h2V11h-2a1 1 0 0 1-.999-1.05l.013-.114 1-6a1 1 0 0 1 .865-.829L25 3zm-12 9a2 2 0 0 1 1.995 1.85L19 14v1h1a3 3 0 0 1 2.995 2.824L23 18v12h-2v-2H4v2H2V18a3 3 0 0 1 2.824-2.995L5 15h1v-1a2 2 0 0 1 1.697-1.977l.154-.018L8 12zm3 10H5a1 1 0 0 0-.993.883l-.007.1V26h17v-3a1 1 0 0 0-.77-.974l-.113-.02zm0-5h-1v3h1c.351 0 .688.06 1 .171V18a1 1 0 0 0-.883-.993zM6 17H5a1 1 0 0 0-.993.883L4 18v2.17c.25-.088.516-.144.791-.163L5 20h1zm11-3H8l-.001 6h9zm11.152-9h-2.305l-.667 4h3.639z"/></svg>